<svg height="512" viewBox="0 0 46 58" width="512" xmlns="http://www.w3.org/2000/svg"><g id="Page-1" fill="none" fill-rule="evenodd"><g id="003---History"><path id="Path" d="m46 9c0 4.9705627-4.0294373 9-9 9h-28c-4.97056275 0-9-4.0294373-9-9 0-4.97056275 4.02943725-9 9-9h28c4.9705627 0 9 4.02943725 9 9z" fill="#f3d55b"/><g fill="#f0c419"><path id="Path" d="m37 20c-3.6894233-.0014125-7.0783491-2.0341592-8.8166543-5.2884089-1.7383053-3.2542497-1.5435586-7.20126767.5066543-10.2685911.314398-.44017458.9218226-.55055386 1.3709815-.2491304.4491588.30142346.5772109.90536962.2890185 1.3631304-1.6389256 2.45407229-1.7937411 5.6111159-.4027876 8.2137677 1.3909536 2.6026518 4.1017629 4.2281995 7.0527876 4.2292323.5522847 0 1 .4477153 1 1s-.4477153 1-1 1z"/><path id="Path" d="m9 20c-.55228475 0-1-.4477153-1-1s.44771525-1 1-1c2.9510247-.0010328 5.661834-1.6265805 7.0527876-4.2292323 1.3909535-2.6026518 1.236138-5.75969541-.4027876-8.2137677-.2881924-.45776078-.1601403-1.06170694.2890185-1.3631304.4491589-.30142346 1.0565835-.19104418 1.3709815.2491304 2.0502129 3.06732343 2.2449596 7.0143414.5066543 10.2685911-1.7383052 3.2542497-5.127231 5.2869964-8.8166543 5.2884089z"/><path id="Path" d="m9 14c-2.76142375 0-5-2.2385763-5-5 0-2.76142375 2.23857625-5 5-5 .55228475 0 1 .44771525 1 1s-.44771525 1-1 1c-1.65685425 0-3 1.34314575-3 3 0 1.6568542 1.34314575 3 3 3 1.6568542 0 3-1.3431458 3-3 0-.55228475.4477153-1 1-1s1 .44771525 1 1c-.0033061 2.7600532-2.2399468 4.9966939-5 5z"/><path id="Path" d="m37 14c-2.7600532-.0033061-4.9966939-2.2399468-5-5 0-.55228475.4477153-1 1-1s1 .44771525 1 1c0 1.6568542 1.3431458 3 3 3s3-1.3431458 3-3c0-1.65685425-1.3431458-3-3-3-.5522847 0-1-.44771525-1-1s.4477153-1 1-1c2.7614237 0 5 2.23857625 5 5 0 2.7614237-2.2385763 5-5 5z"/><rect id="Rectangle" height="5" rx="2" width="32" x="7" y="18"/></g><path id="Path" d="m9 23h28v2c0 1.1045695-.8954305 2-2 2h-24c-1.1045695 0-2-.8954305-2-2z" fill="#f29c1f"/><path id="Path" d="m10 52h26c1.1045695 0 2 .8954305 2 2v3c0 .5522847-.4477153 1-1 1h-28c-.55228475 0-1-.4477153-1-1v-3c0-1.1045695.8954305-2 2-2z" fill="#f29c1f"/><path id="Rectangle" d="m11 27h24v25h-24z" fill="#f0c419"/><path id="Path" d="m17 49c-.5522847 0-1-.4477153-1-1v-16c0-.5522847.4477153-1 1-1s1 .4477153 1 1v16c0 .5522847-.4477153 1-1 1z" fill="#f29c1f"/><path id="Path" d="m23 49c-.5522847 0-1-.4477153-1-1v-16c0-.5522847.4477153-1 1-1s1 .4477153 1 1v16c0 .5522847-.4477153 1-1 1z" fill="#f29c1f"/><path id="Path" d="m29 49c-.5522847 0-1-.4477153-1-1v-16c0-.5522847.4477153-1 1-1s1 .4477153 1 1v16c0 .5522847-.4477153 1-1 1z" fill="#f29c1f"/></g></g></svg>