<svg id="Layer_1" enable-background="new 0 0 512 512" height="512" viewBox="0 0 512 512" width="512" xmlns="http://www.w3.org/2000/svg"><g><g><path d="m176 112h-96v-16c0-8.837 7.163-16 16-16h64c8.837 0 16 7.163 16 16z" fill="#463c4b"/></g><g><path d="m432 112h-96v-16c0-8.837 7.163-16 16-16h64c8.837 0 16 7.163 16 16z" fill="#463c4b"/></g><g><path d="m16 208v144.804c0 43.739 35.457 79.196 79.196 79.196 21.004 0 41.148-8.344 56-23.196l54.828-54.828c21.755-21.755 33.976-51.26 33.976-82.025v-63.951z" fill="#463c4b"/></g><g><path d="m496 208v144.804c0 43.739-35.457 79.196-79.196 79.196-21.004 0-41.148-8.344-56-23.196l-54.828-54.828c-21.755-21.755-33.976-51.26-33.976-82.025v-63.951z" fill="#463c4b"/></g><g><path d="m384 96c-26.16 0-50.223 8.97-69.286 24h-117.428c-19.063-15.03-43.126-24-69.286-24-61.856 0-112 50.144-112 112s50.144 112 112 112c12.262 0 24.061-1.977 35.103-5.619 7.608 21.896 28.41 37.619 52.897 37.619 15.674 0 29.835-6.447 40-16.824 10.165 10.377 24.326 16.824 40 16.824 24.487 0 45.289-15.723 52.897-37.619 11.042 3.642 22.841 5.619 35.103 5.619 61.856 0 112-50.144 112-112s-50.144-112-112-112z" fill="#555a6e"/></g><g><path d="m282.667 176h-53.333c-13.255 0-24-10.745-24-24v-32h101.333v32c0 13.255-10.745 24-24 24z" fill="#463c4b"/></g><g><circle cx="436" cy="208" fill="#ff6e91" r="28"/></g><g><circle cx="332" cy="208" fill="#ff6e91" r="28"/></g><g><circle cx="384" cy="156" fill="#00d2d2" r="28"/></g><g><circle cx="384" cy="260" fill="#00d2d2" r="28"/></g><g><circle cx="296" cy="296" fill="#463c4b" r="29.333"/></g><g><circle cx="216" cy="296" fill="#463c4b" r="29.333"/></g><g><path d="m149.206 178.395-13.626 11.679c-1.45 1.243-3.297 1.926-5.206 1.926h-4.748c-1.91 0-3.756-.683-5.206-1.926l-13.626-11.679c-1.773-1.52-2.794-3.739-2.794-6.074v-36.321c0-4.418 3.582-8 8-8h32c4.418 0 8 3.582 8 8v36.321c0 2.335-1.021 4.554-2.794 6.074z" fill="#463c4b"/></g><g><path d="m149.206 237.605-13.626-11.679c-1.45-1.243-3.297-1.926-5.206-1.926h-4.748c-1.91 0-3.756.683-5.206 1.926l-13.626 11.679c-1.773 1.52-2.794 3.739-2.794 6.074v36.321c0 4.418 3.582 8 8 8h32c4.418 0 8-3.582 8-8v-36.321c0-2.335-1.021-4.554-2.794-6.074z" fill="#463c4b"/></g><g><path d="m98.395 186.794 11.679 13.626c1.243 1.45 1.926 3.297 1.926 5.206v4.748c0 1.91-.683 3.756-1.926 5.206l-11.679 13.626c-1.52 1.773-3.739 2.794-6.074 2.794h-36.321c-4.418 0-8-3.582-8-8v-32c0-4.418 3.582-8 8-8h36.321c2.335 0 4.554 1.021 6.074 2.794z" fill="#463c4b"/></g><g><path d="m157.605 186.794-11.679 13.626c-1.243 1.45-1.926 3.297-1.926 5.206v4.748c0 1.91.683 3.756 1.926 5.206l11.679 13.626c1.52 1.773 3.739 2.794 6.074 2.794h36.321c4.418 0 8-3.582 8-8v-32c0-4.418-3.582-8-8-8h-36.321c-2.335 0-4.554 1.021-6.074 2.794z" fill="#463c4b"/></g></g></svg>