<svg id="Capa_1" enable-background="new 0 0 497 497" height="512" viewBox="0 0 497 497" width="512" xmlns="http://www.w3.org/2000/svg"><g><path d="m441.231 91.644-103.022-74.943c-27.829-10.778-58.075-16.701-89.709-16.701l55.991 488.75h7.687c60.503-15.995 111.961-54.229 145.096-105.435l39.35-121.196c.244-4.51.376-9.049.376-13.619 0-59.484-20.911-114.078-55.769-156.856z" fill="#b8b4b3"/><path d="m467 248.5c0-137.243-97.826-248.5-218.5-248.5-31.634 0-61.88 5.923-89.709 16.701l-103.022 74.942c-34.858 42.779-55.769 97.373-55.769 156.857 0 4.57.132 9.11.376 13.619l39.35 121.196c33.135 51.206 84.592 89.44 145.096 105.435h119.669c93.544-28.124 162.509-125.021 162.509-240.25z" fill="#d0cdcd"/><path d="m248.5 248.5-30 109.25 30 109.25c97.103 0 179.396-63.348 207.846-150.967l-103.923-67.533z" fill="#e7e6e6"/><path d="m40.654 316.033c28.45 87.619 110.743 150.967 207.846 150.967v-218.5h-103.923z" fill="#f7f7f7"/><path d="m376.931 71.73h-256.862c-54.581 39.724-90.069 104.098-90.069 176.77 0 23.571 3.748 46.264 10.654 67.533l207.846-67.533 207.846 67.533c6.906-21.269 10.654-43.962 10.654-67.533 0-72.672-35.488-137.046-90.069-176.77z" fill="#fff"/><path d="m376.931 71.73c-36.052-26.239-80.429-41.73-128.431-41.73s-92.379 15.491-128.431 41.73l128.431 176.77z" fill="#e7e6e6"/><path d="m248.5 497c22.014 0 43.354-2.876 63.678-8.25l2.311-3.297z" fill="#292827"/><path d="m248.5 407-93.679 38.944 30.001 42.807c20.325 5.373 41.664 8.25 63.678 8.25 23.001 0 45.167-4.053 65.989-11.546l27.69-39.51z" fill="#464342"/><path d="m465.661 220.994-39.234 171.767 30.847-9.445c22.818-35.262 36.944-76.669 39.35-121.196z" fill="#292827"/><path d="m465.661 220.994-.432-.574-65.986 77.06 8.089 101.128 19.095-5.847c25.541-40.674 40.573-90.47 40.573-144.261 0-9.299-.464-18.473-1.339-27.506z" fill="#464342"/><path d="m338.209 16.701-6.175 2.123 108.545 111.125.652-38.306c-27.029-33.17-62.446-59.228-103.022-74.942z" fill="#292827"/><g fill="#464342"><path d="m332.034 18.824-43.267 14.878 52.897 86.569 98.678 23.557.236-13.878c-23.807-49.789-62.151-89.277-108.544-111.126z"/><path d="m155.336 120.271 52.897-86.569-49.442-17.001c-40.576 15.714-75.993 41.772-103.022 74.942l.889 52.185z"/><path d="m97.758 297.479-65.986-77.06-31.396 41.7c2.405 44.527 16.532 85.934 39.35 121.196l49.943 15.292z"/><path d="m248.5 347 93.679-68.062-35.782-110.126h-115.794l-35.782 110.126z"/></g></g></svg>