<svg id="Capa_1" enable-background="new 0 0 512 512" height="512" viewBox="0 0 512 512" width="512" xmlns="http://www.w3.org/2000/svg"><g><g><path d="m469.809 154.855c-4.267 0-7.727-3.468-7.727-7.748v-59.568h15.453v59.568c.001 4.28-3.459 7.748-7.726 7.748z" fill="#89808c"/></g><path d="m483.04 208.982h-26.461c-4.837 0-8.605-4.208-8.087-9.03l5.543-51.604c.445-4.143 3.932-7.283 8.087-7.283h15.375c4.155 0 7.642 3.14 8.087 7.283l5.543 51.604c.518 4.823-3.25 9.03-8.087 9.03z" fill="#665e66"/><g><g><g><g><g><g><path d="m163.232 466.513c9.806 3.66 20.185 5.534 30.649 5.534h118.994c16.652 0 32.962-4.745 47.028-13.683l64.788-36.751c15.78-8.951 25.566-25.697 25.641-43.876l.025-11.558-5.648-3.548-118.489 52.315-3.432-4.073.061-8.35 3.496-3.073.047-8.103c-1.921-19.371-16.794-34.916-36.015-37.643l-88.336-10.199c-20.377-2.891-30.56-9.739-48.324-20.159-24.253-14.227-51.844-21.725-79.942-21.725h-31.673v119.888z" fill="#ffece4"/></g><path d="m507.483 357.912c-8.091-11.924-21.477-13.997-36.206-7.013l-26.57 11.731-.043 10.457c-.075 18.18-9.861 34.925-25.641 43.876l-64.788 36.751c-14.066 8.938-30.375 13.683-47.028 13.683h-118.993c-10.463 0-20.843-1.874-30.649-5.534l-115.463-43.095v23.072l115.463 43.096c9.806 3.66 20.185 5.534 30.649 5.534h118.994c16.652 0 32.962-4.745 47.028-13.683l148.991-84.515c9.837-8.759 11.612-23.52 4.256-34.36z" fill="#ffddce"/><path d="m66.947 464.902c0 8.401-6.791 15.21-15.169 15.21h-36.61c-8.377 0-15.169-6.81-15.169-15.21v-176.095c0-8.401 6.791-15.21 15.169-15.21h36.61c8.377 0 15.169 6.81 15.169 15.21z" fill="#7296d1"/></g><g><path d="m326.22 414.946-146.964-.001c-4.267 0-7.727-3.468-7.727-7.748s3.459-7.748 7.727-7.748h147.076z" fill="#ffddce"/></g></g><g><g><g><g><g><path d="m345.686 217.654v-130.839h-198.177v130.133c0 11.146 9.01 20.181 20.125 20.181h163.856c8.231-2.628 14.196-10.351 14.196-19.475z" fill="#756e78"/><path d="m341.127 86.815v130.133c0 11.145-9.01 20.181-20.125 20.181h72.191c11.115 0 20.125-9.035 20.125-20.181v-130.133z" fill="#665e66"/><path d="m261.248 24.732-176.403 60.627c-2.071.712-2.071 3.649 0 4.361l176.403 60.626c12.423 4.269 25.909 4.269 38.332 0l176.403-60.626c2.071-.712 2.071-3.649 0-4.361l-176.403-60.627c-12.423-4.269-25.91-4.269-38.332 0z" fill="#595959"/><path d="m408.412 93.596-.475-31.623-108.357-37.241c-12.423-4.269-25.909-4.269-38.332 0l-176.403 60.627c-2.071.712-2.071 3.649 0 4.361l176.403 60.626c12.423 4.269 25.909 4.269 38.332 0l98.168-33.739c7.422-5.576 11.012-14.548 10.664-23.011z" fill="#89808c"/><g><path d="m475.982 85.358-71.152-24.453.491 32.691c.402 9.777-4.442 20.242-14.39 25.354l85.051-29.231c2.071-.712 2.071-3.649 0-4.361z" fill="#665e66"/></g></g></g></g></g></g></g></g></g></g></svg>