<svg height="512" viewBox="0 0 58 58" width="512" xmlns="http://www.w3.org/2000/svg"><g id="Page-1" fill="none" fill-rule="evenodd"><g id="008---Art" transform="translate(-1)"><path id="Path" d="m45.28 19h8.99c1.8390266-.0043179 3.4440399 1.2458596 3.89 3.03 2.9763238 12.01223-1.9963953 24.5898211-12.3824139 31.31907s-23.8975725 6.1278808-33.6447019-1.4974481c-9.74712943-7.6253289-13.58280058-20.5949611-9.55108594-32.2952794 4.03171464-11.70031841 15.04273534-19.55405347 27.41820174-19.5563425.36 0 .73.01 1.09.02 2.1677895.06296646 3.8963737 1.83133906 3.91 4v10.98c.0001889.5437549.1125292 1.0816268.33 1.58z" fill="#cf976a"/><circle id="Oval" cx="10" cy="29" fill="#e64c3c" r="4"/><circle id="Oval" cx="15.858" cy="43.142" fill="#955ba5" r="4"/><circle id="Oval" cx="30" cy="49" fill="#7ed09e" r="4"/><circle id="Oval" cx="44.142" cy="43.142" fill="#b0d3f0" r="4"/><circle id="Oval" cx="50" cy="29" fill="#f3d55b" r="4"/><path id="Path" d="m42.28 22.02c-.1719887.1572803-.355869.3010412-.55.43l-5.04 3.44-4.58-4.57 3.44-5.05c.1289588-.194131.2727197-.3780113.43-.55z" fill="#bdc3c7"/><path id="Path" d="m58.1 5.93-15.36 15.64c-.1432782.1599453-.2969447.3102713-.46.45l-6.3-6.3c.1398327-.1598339.2901661-.3101673.45-.45l16.64-14.37c1.4101175-1.25218311 3.5517348-1.18871581 4.8852253.14477472s1.3969578 3.47510775.1447747 4.88522528z" fill="#fac176"/><path id="Path" d="m36.168 29.288c-1.889 3.926-6.9 3.885-9.385 3.6-.8710223-.0911024-1.5627985-.7733283-1.666-1.643-.243-2.078-.321-5.966 1.994-8.281 1.891803-2.0442268 5.0019277-2.3789292 7.2853628-.7840291 2.283435 1.5949001 3.0397478 4.6301748 1.7716372 7.1100291z" fill="#f5efca"/></g></g></svg>