<svg id="Capa_1" enable-background="new 0 0 512 512" height="512" viewBox="0 0 512 512" width="512" xmlns="http://www.w3.org/2000/svg"><g><path d="m388.129 512h-16.516l-16.165-14.451-16.867 14.451h-33.032l-15.911-14.451-17.122 14.451h-33.032l-16.308-14.451-16.724 14.451h-16.516c-9.122 0-16.516-7.395-16.516-16.516v-242.278l231.226 11.052v231.226c-.001 9.121-7.395 16.516-16.517 16.516z" fill="#ffe09c"/><path d="m222.968 264.258h181.677v-98.364h-297.29v329.59c0 9.122 7.395 16.516 16.516 16.516h16.516l17.631-16.406 15.401 16.406h16.516v-214.71c.001-18.243 14.79-33.032 33.033-33.032z" fill="#ffd18d"/><path d="m421.909 8.211-331.07-8.211c-50.169 0-90.839 40.67-90.839 90.839s40.67 90.839 90.839 90.839c32.812 0 65.045-25.535 67.179-57.806h192.217c2.135 32.272 38.114 57.806 70.926 57.806 0 0 84.802-19.693 84.802-90.839 0-50.169-33.885-82.628-84.054-82.628z" fill="#ffe09c"/><path d="m346.839 115.613h-181.678l-33.032-49.548h239.484z" fill="#ffe09c"/><path d="m421.161 214.71h-264.258c-4.561 0-8.258 3.697-8.258 8.258v8.258c0 4.56 3.697 8.258 8.258 8.258h264.258c4.56 0 8.258-3.698 8.258-8.258v-8.258c0-4.561-3.697-8.258-8.258-8.258z" fill="#ffefac"/><path d="m289.032 280.774c-9.121 0-16.516 7.395-16.516 16.516v214.71h33.032v-214.71c0-9.121-7.394-16.516-16.516-16.516z" fill="#ffefac"/><path d="m355.097 280.774c-9.121 0-16.516 7.395-16.516 16.516v214.71h33.032v-214.71c0-9.121-7.395-16.516-16.516-16.516z" fill="#ffefac"/><path d="m173.419 231.226c-9.122 0-16.516-7.395-16.516-16.516h-66.064c-4.561 0-8.258 3.697-8.258 8.258v16.516c0 4.561 3.697 8.258 8.258 8.258h330.323c4.561 0 8.258-3.697 8.258-8.258v-8.258z" fill="#ffe09c"/><path d="m156.903 280.774c-9.121 0-16.516 7.395-16.516 16.516v214.71h33.032v-214.71c0-9.121-7.394-16.516-16.516-16.516z" fill="#fbbd80"/><path d="m222.968 280.774c-9.121 0-16.516 7.395-16.516 16.516v214.71h33.032v-214.71c0-9.121-7.395-16.516-16.516-16.516z" fill="#ffd18d"/><path d="m99.097 49.548h313.806l-25.528 16.517h-268.452z" fill="#ffd18d"/><path d="m412.903 115.613c-4.565 0-8.258 3.698-8.258 8.258s3.694 8.258 8.258 8.258c22.766 0 41.29-18.524 41.29-41.29s-18.524-41.29-41.29-41.29c-34.47 0-63.155 24.998-69.031 57.806h-13.549l-23.527 13.58-26.022-13.58-25.236 13.58-24.312-13.58-27.814 13.58-21.734-13.58h-13.549c-5.876-32.808-34.562-57.806-69.031-57.806-22.766 0-41.29 18.524-41.29 41.29s18.524 41.29 41.29 41.29c4.565 0 8.258-3.698 8.258-8.258s-3.694-8.258-8.258-8.258c-13.661 0-24.774-11.113-24.774-24.774s11.113-24.774 24.774-24.774c29.597 0 53.677 24.081 53.677 53.677 0 34.206-27.729 61.935-61.935 61.935h330.323c-34.206 0-61.935-27.729-61.935-61.935 0-29.597 24.081-53.677 53.677-53.677 13.661 0 24.774 11.113 24.774 24.774s-11.114 24.774-24.776 24.774z" fill="#fbbd80"/><g fill="#ffd18d"><path d="m192.087 138.582c4.601 13.805 24.129 13.805 28.73 0l10.409-31.227h-49.548z"/><path d="m241.635 138.582c4.601 13.805 24.129 13.805 28.73 0l10.409-31.227h-49.548z"/><path d="m280.774 107.355 10.409 31.227c4.601 13.805 24.129 13.805 28.73 0l10.409-31.227z"/></g><path d="m418.537 16.516c39.545 0 74.131 29.772 76.776 69.229 2.557 38.146-23.856 70.749-59.378 77.942-8.585 1.738-14.774 9.232-14.774 17.991 50.735 0 91.755-41.593 90.823-92.54-.915-50.008-43.819-89.138-93.835-89.138h-327.31c0 9.122 7.395 16.516 16.516 16.516z" fill="#ffefac"/></g></svg>